<svg xmlns="http://www.w3.org/2000/svg" viewBox="0 0 167 40" xmlns:xlink="http://www.w3.org/1999/xlink">
  <defs>
    <path id="a" d="M.035 32.4V.02h42.51V32.4z"/>
  </defs>
  <g fill="none" fill-rule="evenodd">
    <g fill="#f43530">
      <path d="M98.717 18.07h6.3v1.56h-4.697v1.853h3.59v1.585h-3.59v2.058h4.698v1.56h-6.3"/>
      <path d="M106.623 25.622c0-.315.025-.412.222-.678l1.91-2.566-1.91-2.566c-.197-.266-.222-.363-.222-.678V18.07h1.542v.835c0 .12 0 .145.06.218l1.543 2.057 1.553-2.057c.07-.073.07-.097.07-.218v-.836h1.53v1.06c0 .31-.01.41-.21.68l-1.92 2.56 1.93 2.56c.2.26.21.36.21.68v1.06h-1.53v-.84c0-.12 0-.14-.06-.22l-1.55-2.06-1.54 2.06c-.06.07-.06.09-.06.22v.83h-1.54V25.6z"/>
      <path d="M116.588 19.63h-2.343v-1.56h6.302v1.56h-2.356v7.057h-1.6"/>
      <path d="M122.15 18.07h6.303v1.56h-4.7v1.853h3.59v1.585h-3.59v2.058h4.7v1.56h-6.302"/>
      <path d="M130.427 18.07h1.554l3.15 5.397V18.07h1.61v8.617h-1.51l-3.18-5.543v5.543h-1.6"/>
      <path d="M138.678 24.666l1.505-.388.074.23c.123.4.308.618.678.618h1.788c.358 0 .654-.303.654-.666v-.424c0-.266-.173-.52-.42-.58l-2.774-.74c-.876-.23-1.48-1.1-1.48-2.044v-.4c0-1.27.95-2.203 2.244-2.203h1.727c1.196 0 2.17.87 2.318 2l-1.492.4-.074-.23c-.123-.4-.31-.62-.666-.62h-1.788c-.37 0-.666.3-.666.66v.3c0 .41.234.65.654.76l2.306.58c.962.24 1.677 1.06 1.677 2.09v.31c0 1.29-.987 2.33-2.306 2.33h-1.615c-1.21 0-2.196-.87-2.344-2.02"/>
      <path d="M146.486 25.126h1.233V19.63h-1.24v-1.56h4.08v1.56h-1.24v5.496h1.23v1.56h-4.08"/>
      <path d="M156.23 25.126c.368 0 .677-.303.677-.666v-4.164c0-.363-.31-.665-.678-.665h-1.77c-.37 0-.67.31-.67.67v4.17c0 .37.29.67.66.67h1.76zm-4.02-.74V20.37c0-1.272 1.047-2.3 2.342-2.3h1.615c1.283 0 2.343 1.028 2.343 2.3v4.017c0 1.27-1.06 2.3-2.343 2.3h-1.615c-1.295 0-2.343-1.03-2.343-2.3z"/>
      <path d="M160.608 18.07h1.554l3.144 5.397V18.07h1.603v8.617h-1.52l-3.18-5.543v5.543h-1.61"/>
      <path d="M98.322 37.694l1.505-.388.074.23c.13.4.31.618.68.618h1.79c.36 0 .66-.303.66-.666v-.424c0-.266-.17-.52-.42-.58l-2.77-.74c-.87-.23-1.48-1.1-1.48-2.044v-.4c0-1.27.95-2.203 2.25-2.203h1.73c1.2 0 2.17.872 2.32 2.01l-1.49.4-.07-.23c-.12-.4-.31-.618-.66-.618h-1.79c-.37 0-.66.3-.66.66v.3c0 .41.24.65.66.76l2.31.58c.96.24 1.68 1.06 1.68 2.09v.31c0 1.29-.98 2.33-2.3 2.33h-1.62c-1.21 0-2.2-.87-2.34-2.02"/>
      <path d="M106.376 37.415v-4.018c0-1.27 1.048-2.3 2.343-2.3h1.62c1.19 0 2.17.872 2.33 2.01l-1.51.4-.09-.23c-.15-.4-.3-.618-.67-.618h-1.79c-.37 0-.67.3-.67.66v4.16c0 .36.29.66.66.66h1.76c.37 0 .58-.21.69-.62l.06-.23 1.5.38c-.15 1.15-1.12 2.02-2.32 2.02h-1.61c-1.3 0-2.35-1.03-2.35-2.3"/>
      <path d="M114.43 31.097h1.603v3.426h3.095v-3.426h1.603v8.618h-1.6v-3.62h-3.09v3.62h-1.6"/>
      <path d="M126.85 38.154c.37 0 .678-.303.678-.666v-4.164c0-.363-.31-.665-.678-.665h-1.764c-.37 0-.665.3-.665.66v4.16c0 .36.3.66.67.66h1.77zm-4.02-.74v-4.017c0-1.27 1.048-2.3 2.343-2.3h1.615c1.283 0 2.343 1.03 2.343 2.3v4.018c0 1.27-1.06 2.3-2.34 2.3h-1.61c-1.29 0-2.34-1.03-2.34-2.3z"/>
      <path d="M135.003 38.154c.37 0 .678-.303.678-.666v-4.164c0-.363-.3-.665-.67-.665h-1.76c-.37 0-.66.3-.66.66v4.16c0 .36.3.66.67.66H135zm-4.02-.74v-4.017c0-1.27 1.047-2.3 2.343-2.3h1.615c1.29 0 2.35 1.03 2.35 2.3v4.018c0 1.27-1.06 2.3-2.34 2.3h-1.61c-1.29 0-2.34-1.03-2.34-2.3z"/>
      <path d="M139.38 31.097h1.605v7.057h4.266v1.56h-5.87"/>
      <path d="M98.7.317h9.603v2.38h-7.16v2.82h5.47v2.418h-5.47v3.135h7.16v2.38H98.7"/>
      <path d="M117.457 5.684c.563 0 1.014-.442 1.014-.996V3.71c0-.553-.45-1.014-1.01-1.014h-3.7v2.988h3.71zM111.31.317h6.034c1.954 0 3.57 1.568 3.57 3.504v.76c0 1.92-1.616 3.51-3.57 3.51h-3.59v5.37h-2.443V.32z"/>
      <path d="M123.358.317h9.603v2.38h-7.15v2.82h5.47v2.418h-5.46v5.514h-2.44"/>
      <path d="M135.31.317h2.445V11.07h6.502v2.38h-8.946"/>
    </g>
    <path fill="#000" d="M90 0h1v40h-1z"/>
    <path fill="#f43530" d="M26.996 23.585s-6.975-9.612 0-23.564H.17v23.57h26.826"/>
    <path fill="#f43530" d="M59.374 23.598c-3.546-5.64-3.313-10.696-3.313-10.696L56.05.022h27.26l-.022 23.574-23.914.002"/>
    <path fill="#1A1919" d="M32.615.02s-3.08 5.38-3.196 10.436h2.84v2.44H29.3s-.232 5.06 3.314 10.696h-2.877s-6.975-9.62 0-23.57h2.877"/>
    <path fill="#1A1919" d="M43.4 23.596h2.713V12.902h2.896v-2.44h-2.85C46.27 5.402 49.35.025 49.35.025h-2.87c-2.212 4.423-3.02 8.412-3.094 11.796L43.4 23.6"/>
    <path fill="#1A1919" d="M53.296 12.902s-.234 5.057 3.312 10.696H53.73s-3.254-4.487-3.092-11.777V.02h2.643l.02 12.882"/>
    <path fill="#1A1919" d="M34.394 23.596h2.673V.02h-2.673"/>
    <mask id="b" fill="#fff">
      <use xlink:href="#a"/>
    </mask>
    <path fill="#1A1919" d="M40.67.02h-2.846s4.476 5.873 0 11.802h2.847s4.22-5.574 0-11.8" mask="url(#b)"/>
    <path fill="#1A1919" d="M.546 29.458c0-.98 0-1.156-.012-1.356-.013-.213-.063-.314-.27-.358-.05-.012-.157-.02-.213-.02-.02 0-.05-.01-.05-.037 0-.038.04-.05.1-.05.29 0 .68.018.71.018.05 0 1.3 0 1.44-.006.12-.01.22-.02.27-.04.03-.01.06-.03.09-.03.02 0 .03.02.03.05 0 .04-.03.12-.05.29 0 .06-.02.33-.03.41 0 .03-.02.07-.04.07-.03 0-.05-.03-.05-.08s0-.15-.04-.23c-.04-.1-.1-.18-.44-.22-.1-.01-.79-.02-.86-.02-.02 0-.03.02-.03.06v1.73c0 .04.01.06.04.06.08 0 .86 0 1-.02.15-.02.24-.03.3-.09.04-.05.07-.08.09-.08.02 0 .03.01.03.05 0 .03-.03.14-.05.35-.01.12-.02.35-.02.4 0 .05 0 .12-.04.12-.03 0-.04-.03-.04-.06 0-.07 0-.13-.02-.21-.02-.09-.08-.2-.32-.22-.17-.02-.79-.03-.9-.03-.03 0-.04.02-.04.04v1.62c.02.43.11.51.73.51.16 0 .44 0 .6-.07.17-.07.24-.2.28-.45.02-.07.03-.1.06-.1.04 0 .04.05.04.09 0 .05-.05.47-.08.6-.04.17-.09.17-.34.17-.95 0-1.37-.04-1.55-.04-.03 0-.43.02-.61.02-.07 0-.1-.02-.1-.05 0-.02.01-.04.05-.04.06 0 .13-.01.19-.03.13-.03.16-.16.18-.35.03-.26.03-.76.03-1.36v-1.1zm1.82-2.674c.032.057 0 .075-.025.075-.01 0-.08-.02-.18 0-.3.03-.74.17-.95.26-.04.02-.08.03-.09.03-.01 0-.03-.02-.03-.04s.01-.03.04-.05c.23-.16.81-.51.86-.54.11-.07.15-.08.18-.08.02 0 .03.01.07.05.04.06.09.15.16.27z" mask="url(#b)"/>
    <path fill="#1A1919" d="M4.418 31.792c-.61-.548-.76-1.26-.76-1.857 0-.42.145-1.156.704-1.715.376-.375.947-.67 1.913-.67.25 0 .603.02.91.075.24.043.44.08.64.093.07.006.082.032.082.07 0 .05-.02.126-.03.35-.013.208-.013.553-.02.647-.006.095-.02.134-.056.134-.04 0-.05-.05-.05-.14 0-.25-.1-.5-.26-.64-.22-.19-.7-.36-1.25-.36-.83 0-1.22.24-1.44.45-.46.44-.56 1-.56 1.64 0 1.2.93 2.29 2.27 2.29.47 0 .84-.06 1.09-.32.14-.14.22-.42.24-.53.01-.07.03-.1.06-.1s.05.04.05.09c0 .04-.07.59-.14.8-.03.11-.04.13-.16.18-.25.1-.73.14-1.13.14-.94 0-1.57-.24-2.07-.68"/>
    <path fill="#1A1919" d="M8.71 30.005c0 1.13.716 2.464 2.435 2.464 1.513 0 2.504-1.17 2.504-2.57 0-1.46-1.06-2.36-2.47-2.36-1.73 0-2.48 1.43-2.48 2.45zm.596-.177c0-1.374.785-2.066 1.833-2.066.99 0 1.9.81 1.9 2.317 0 1.82-1.17 2.15-1.73 2.15-1.13 0-2.01-.94-2.01-2.41z"/>
    <path fill="#1A1919" d="M15.695 30.575c0 .922.025 1.324.138 1.437.1.1.264.145.753.145.333 0 .61-.006.76-.19.08-.1.144-.258.162-.375.007-.05.02-.08.057-.08.03 0 .037.023.037.093 0 .068-.043.445-.094.626-.043.15-.062.17-.394.17-.905 0-1.32-.03-1.683-.03-.05 0-.42.02-.61.02-.07 0-.1-.01-.1-.05 0-.02.01-.04.05-.04.06 0 .13-.01.19-.02.13-.02.16-.16.18-.34.03-.26.03-.76.03-1.36v-1.11c0-.98 0-1.15-.01-1.35-.01-.21-.06-.31-.27-.36-.05-.01-.15-.02-.21-.02-.02 0-.05-.01-.05-.03 0-.04.03-.05.1-.05.29 0 .68.02.71.02.03 0 .49-.02.68-.02.07 0 .1.02.1.06 0 .03-.02.04-.05.04-.04 0-.13.01-.2.02-.18.03-.23.14-.24.36-.01.2-.01.38-.01 1.36v1.11"/>
    <path fill="#1A1919" d="M18.882 29.458c0-.98 0-1.156-.012-1.356-.012-.213-.062-.314-.27-.358-.05-.012-.156-.02-.213-.02-.025 0-.05-.01-.05-.037 0-.038.03-.05.1-.05.283 0 .678.018.71.018.043 0 1.292 0 1.437-.006.12-.01.22-.02.27-.04.03-.01.055-.03.087-.03.02 0 .03.02.03.05 0 .04-.03.12-.05.29 0 .06-.02.33-.03.41-.01.03-.02.07-.04.07-.03 0-.05-.03-.05-.08s0-.15-.03-.23c-.04-.1-.1-.18-.44-.22-.1-.01-.79-.02-.86-.02-.02 0-.04.02-.04.06v1.73c0 .04.01.06.04.06.08 0 .86 0 1-.02.15-.02.24-.03.3-.09.05-.05.07-.08.1-.08.02 0 .04.01.04.05 0 .03-.03.14-.05.35-.01.12-.02.35-.02.4 0 .05 0 .12-.04.12-.03 0-.04-.03-.04-.06 0-.07 0-.13-.03-.21-.02-.09-.08-.2-.32-.22-.17-.02-.79-.03-.9-.03-.03 0-.04.02-.04.04v1.62c.02.43.11.51.73.51.17 0 .44 0 .61-.07.16-.07.24-.2.28-.45.01-.07.02-.1.06-.1.04 0 .04.05.04.09 0 .05-.05.47-.08.6-.04.17-.09.17-.34.17-.94 0-1.36-.04-1.55-.04-.03 0-.42.02-.61.02-.07 0-.1-.02-.1-.05 0-.02.01-.04.05-.04.06 0 .13-.01.19-.03.13-.03.16-.16.18-.35.03-.26.03-.76.03-1.36v-1.1"/>
    <path fill="#1A1919" d="M24.75 29.458c0-.98 0-1.156-.012-1.356-.013-.213-.063-.314-.27-.358-.05-.012-.157-.02-.213-.02-.026 0-.05-.01-.05-.037 0-.038.03-.05.1-.05.282 0 .66.018.71.018.136 0 .5-.02.79-.02.784 0 1.066.267 1.167.36.138.13.314.414.314.746 0 .9-.652 1.5-1.544 1.5h-.132c-.03 0-.07-.01-.07-.04 0-.05.04-.05.17-.05.61 0 1.086-.44 1.086-1.02 0-.2-.018-.62-.35-.96-.334-.34-.717-.32-.86-.32-.108 0-.215.02-.27.04-.038.01-.05.06-.05.12v2.58c0 .6 0 1.1.03 1.36.02.19.056.32.245.35.09.02.23.03.29.03.04 0 .05.02.05.04 0 .03-.03.05-.1.05-.34 0-.74-.02-.77-.02-.02 0-.41.02-.6.02-.07 0-.1-.01-.1-.05 0-.02.02-.04.05-.04.06 0 .14-.01.19-.02.13-.03.16-.16.18-.34.04-.26.04-.76.04-1.36V29.5"/>
    <path fill="#1A1919" d="M28.064 30.005c0 1.13.715 2.464 2.434 2.464 1.513 0 2.505-1.17 2.505-2.57 0-1.46-1.055-2.36-2.467-2.36-1.73 0-2.472 1.43-2.472 2.45zm.596-.177c0-1.374.785-2.066 1.832-2.066.992 0 1.908.81 1.908 2.317 0 1.82-1.167 2.15-1.732 2.15-1.13 0-2.008-.94-2.008-2.41z"/>
    <path fill="#1A1919" d="M34.923 30.575c0 .922.025 1.324.138 1.437.1.1.27.145.76.145.34 0 .61-.006.76-.19.08-.1.15-.258.16-.375.01-.05.02-.08.06-.08.03 0 .04.023.04.093 0 .068-.04.445-.09.626-.04.15-.06.17-.39.17-.9 0-1.31-.03-1.68-.03-.05 0-.43.02-.61.02-.07 0-.1-.01-.1-.05 0-.02.01-.04.05-.04.06 0 .13-.01.19-.02.13-.02.16-.16.19-.34.03-.26.03-.76.03-1.36v-1.11c0-.98 0-1.15-.01-1.35-.01-.21-.06-.31-.27-.36-.05-.01-.16-.02-.21-.02-.02 0-.05-.01-.05-.03 0-.04.03-.05.1-.05.28 0 .68.02.71.02.03 0 .49-.02.68-.02.07 0 .1.02.1.06 0 .03-.02.04-.05.04-.04 0-.13.01-.21.02-.18.03-.23.14-.24.36-.01.2-.01.38-.01 1.36v1.11"/>
    <path fill="#1A1919" d="M38.682 30.755c0-.338-.063-.476-.145-.657-.043-.1-.885-1.482-1.103-1.808-.158-.232-.315-.388-.428-.464-.094-.064-.213-.102-.27-.102-.03 0-.062-.01-.062-.043 0-.02.025-.04.08-.04.12 0 .59.02.622.02.045 0 .283-.02.527-.02.07 0 .082.02.082.05s-.038.04-.094.06c-.05.03-.08.07-.08.12 0 .08.03.15.08.25.1.18 1.05 1.8 1.16 1.99.12-.26.92-1.63 1.04-1.84.08-.13.11-.24.11-.32 0-.08-.02-.15-.1-.17-.05-.02-.09-.03-.09-.06 0-.02.04-.03.1-.03.17 0 .37.02.42.02.04 0 .49-.02.61-.02.05 0 .09.02.09.04 0 .03-.03.05-.08.05-.06 0-.18.03-.28.09-.13.08-.2.15-.33.32-.2.25-1.08 1.73-1.2 2-.09.23-.09.42-.09.63v.54c0 .1 0 .37.02.63.02.18.07.32.26.35.09.01.23.02.29.02.04 0 .05.02.05.04 0 .03-.03.05-.1.05-.34 0-.74-.02-.77-.02-.03 0-.43.02-.61.02-.07 0-.1-.02-.1-.05 0-.02.01-.04.05-.04.06 0 .13-.01.19-.03.13-.03.18-.16.19-.35.02-.26.02-.53.02-.63v-.54"/>
    <path fill="#1A1919" d="M43.552 30.563c0 .602 0 1.098.03 1.36.02.183.057.32.246.345.088.012.226.024.28.024.04 0 .05.02.05.04 0 .03-.03.05-.098.05-.345 0-.74-.02-.77-.02-.033 0-.428.02-.617.02-.07 0-.1-.014-.1-.05 0-.02.01-.04.05-.04.056 0 .132-.012.188-.024.13-.026.16-.162.19-.344.04-.263.04-.76.04-1.36v-2.656l-.93.012c-.39.008-.54.05-.64.2-.07.107-.08.15-.1.195-.02.05-.04.063-.06.063-.02 0-.03-.02-.03-.057 0-.06.13-.6.14-.65.02-.04.04-.12.07-.12.04 0 .11.07.28.08.18.02.42.03.5.03h2.35c.4 0 .57-.06.62-.06.04 0 .04.04.04.08 0 .19-.02.62-.02.69 0 .06-.02.09-.05.09-.03 0-.04-.02-.05-.1l-.01-.07c-.02-.19-.16-.33-.77-.34l-.79-.01v2.66"/>
    <path fill="#1A1919" d="M46.55 29.458c0-.98 0-1.156-.01-1.356-.014-.213-.064-.314-.272-.358-.05-.012-.156-.02-.213-.02-.025 0-.05-.01-.05-.037 0-.038.03-.05.1-.05.282 0 .678.018.71.018.044 0 1.29 0 1.436-.006.12-.01.23-.02.28-.04.03-.01.06-.03.09-.03.02 0 .03.02.03.05 0 .04-.03.12-.05.29 0 .06-.02.33-.03.41-.01.03-.02.07-.04.07-.03 0-.05-.03-.05-.08s0-.15-.04-.23c-.04-.1-.1-.18-.44-.22-.1-.01-.79-.02-.86-.02-.02 0-.03.02-.03.06v1.73c0 .04.01.06.04.06.08 0 .86 0 1-.02.15-.02.24-.03.3-.09.05-.05.07-.08.1-.08.02 0 .03.01.03.05 0 .03-.03.14-.05.35-.01.12-.02.35-.02.4 0 .05 0 .12-.04.12-.03 0-.05-.03-.05-.06 0-.07 0-.13-.02-.21-.02-.09-.08-.2-.32-.22-.17-.02-.79-.03-.9-.03-.03 0-.04.02-.04.04v1.62c.02.43.12.51.73.51.17 0 .44 0 .61-.07.16-.07.24-.2.28-.45.01-.07.03-.1.06-.1.04 0 .04.05.04.09 0 .05-.05.47-.08.6-.04.17-.09.17-.34.17-.95 0-1.37-.04-1.55-.04-.03 0-.43.02-.62.02-.06 0-.1-.02-.1-.05 0-.02.01-.04.05-.04.06 0 .13-.01.19-.03.13-.03.16-.16.18-.35.03-.26.03-.76.03-1.36v-1.1"/>
    <path fill="#1A1919" d="M50.422 31.792c-.61-.548-.76-1.26-.76-1.857 0-.42.144-1.156.703-1.715.377-.375.95-.67 1.917-.67.25 0 .6.02.91.075.235.043.438.08.64.093.066.006.08.032.08.07 0 .05-.02.126-.03.35-.016.208-.016.553-.02.647-.006.095-.018.134-.055.134-.045 0-.05-.05-.05-.14 0-.25-.102-.5-.265-.64-.22-.19-.702-.36-1.254-.36-.836 0-1.224.24-1.446.45-.458.44-.564 1-.564 1.64 0 1.2.924 2.29 2.265 2.29.47 0 .842-.06 1.09-.32.136-.14.217-.42.236-.53.01-.07.02-.1.06-.1.03 0 .04.04.04.09 0 .04-.08.59-.14.8-.04.11-.05.13-.17.18-.25.1-.73.14-1.13.14-.94 0-1.58-.24-2.07-.68"/>
    <path fill="#1A1919" d="M59.22 30.563c0 .602 0 1.098.032 1.36.02.183.057.32.246.345.086.012.224.024.28.024.04 0 .05.02.05.04 0 .03-.03.05-.1.05-.344 0-.74-.02-.77-.02-.03 0-.427.02-.616.02-.07 0-.1-.014-.1-.05 0-.02.012-.04.05-.04.057 0 .133-.012.19-.024.123-.026.154-.162.18-.344.032-.263.032-.76.032-1.36V29.9c0-.024-.02-.037-.04-.037h-2.66c-.02 0-.036.006-.036.037v.66c0 .603 0 1.1.03 1.362.018.182.057.318.247.344.088.012.224.024.28.024.038 0 .05.02.05.04 0 .03-.03.05-.1.05-.344 0-.74-.02-.77-.02-.032 0-.427.02-.616.02-.07 0-.11-.014-.11-.05 0-.02.01-.04.05-.04.05 0 .13-.012.19-.024.12-.026.15-.162.18-.344.03-.263.03-.76.03-1.36v-1.106c0-.98 0-1.156-.02-1.356-.02-.213-.06-.314-.27-.358-.05-.012-.16-.02-.22-.02-.03 0-.05-.01-.05-.037 0-.038.03-.05.1-.05.28 0 .68.018.71.018.03 0 .42-.02.61-.02.07 0 .1.014.1.052 0 .026-.03.037-.05.037-.05 0-.08.008-.16.02-.17.03-.22.138-.24.358-.01.2-.01.377-.01 1.356v.132c0 .03.01.036.03.036h2.66c.02 0 .04-.005.04-.036v-.132c0-.98 0-1.156-.02-1.356-.01-.213-.06-.314-.27-.358-.05-.012-.16-.02-.22-.02-.03 0-.05-.01-.05-.037 0-.038.03-.05.1-.05.28 0 .68.018.71.018.03 0 .42-.02.61-.02.07 0 .1.014.1.052 0 .026-.03.037-.05.037-.04 0-.08.008-.15.02-.17.03-.23.138-.24.358-.01.2-.01.377-.01 1.356v1.105"/>
    <path fill="#1A1919" d="M61.625 31.528c.013.516.073.678.244.727.12.032.25.037.31.037.03 0 .05.013.05.04 0 .036-.04.05-.11.05-.36 0-.61-.02-.67-.02-.06 0-.32.02-.61.02-.07 0-.1-.006-.1-.05 0-.027.02-.04.05-.04.05 0 .16-.005.26-.037.15-.043.18-.224.18-.796l.01-3.6c0-.25.02-.32.07-.32s.16.13.22.2c.09.1 1.03 1.12 1.99 2.15.62.66 1.3 1.43 1.5 1.64l-.07-3.19c-.01-.41-.05-.55-.25-.6-.11-.03-.26-.03-.31-.03-.05 0-.05-.02-.05-.05 0-.04.05-.05.12-.05.28 0 .58.02.65.02.07 0 .28-.02.53-.02.07 0 .11 0 .11.04 0 .03-.03.04-.07.04-.04 0-.08 0-.16.02-.21.04-.24.18-.24.56l-.01 3.67c0 .41-.02.44-.06.44-.05 0-.12-.07-.46-.4-.07-.07-.98-.99-1.64-1.7-.73-.79-1.44-1.58-1.64-1.81l.08 3.01"/>
    <path fill="#1A1919" d="M67.924 30.563c0 .602 0 1.098.032 1.36.02.183.056.32.246.345.087.012.225.024.28.024.04 0 .05.02.05.04 0 .03-.03.05-.1.05-.344 0-.74-.02-.77-.02-.032 0-.427.02-.616.02-.07 0-.1-.014-.1-.05 0-.02.012-.04.05-.04.056 0 .132-.012.19-.024.123-.026.156-.162.18-.344.03-.263.03-.76.03-1.36v-1.106c0-.98 0-1.156-.01-1.356-.013-.213-.077-.32-.214-.352-.068-.018-.152-.026-.196-.026-.025 0-.05-.01-.05-.037 0-.038.032-.05.1-.05.21 0 .604.018.636.018.03 0 .426-.02.616-.02.068 0 .1.014.1.052 0 .026-.027.037-.05.037-.045 0-.082.008-.157.02-.17.03-.22.138-.23.358-.01.2-.01.377-.01 1.356v1.105"/>
    <path fill="#1A1919" d="M73.937 32.84c1.017.558 1.825.84 2.586.84.93 0 1.632-.27 1.99-.432.037-.02.05-.037.05-.062 0-.02-.013-.038-.04-.038-.018 0-.05.013-.087.026-.43.173-.922.243-1.237.243-.32 0-1.27-.032-2.65-.738l-1.29-.67c.41-.28 1.11-1.01 1.11-2.11 0-1.46-1.06-2.36-2.47-2.36-1.73 0-2.48 1.43-2.48 2.45 0 1.13.71 2.46 2.45 2.46.33 0 .76-.1.98-.22l1.05.58zm-3.898-3.012c0-1.374.78-2.066 1.83-2.066.99 0 1.91.81 1.91 2.317 0 1.82-1.17 2.15-1.74 2.15-1.13 0-2.01-.94-2.01-2.41z"/>
    <path fill="#1A1919" d="M75.57 29.458c0-.98 0-1.156-.014-1.356-.012-.213-.062-.314-.27-.358-.05-.012-.157-.02-.214-.02-.024 0-.05-.01-.05-.037 0-.038.033-.05.1-.05.283 0 .666.018.723.018.056 0 .43-.02.62-.02.07 0 .1.014.1.052 0 .026-.024.037-.047.037-.046 0-.084.008-.16.02-.17.025-.22.138-.23.358-.013.2-.013.377-.013 1.356v.878c0 .903.2 1.294.47 1.55.307.29.59.345.948.345.382 0 .758-.18.985-.45.288-.35.363-.89.363-1.53v-.78c0-.98 0-1.15-.01-1.35-.01-.21-.06-.31-.27-.36-.05-.01-.15-.02-.21-.02-.02 0-.05-.01-.05-.03 0-.04.03-.05.1-.05.29 0 .63.02.67.02.05 0 .34-.02.53-.02.07 0 .1.02.1.05 0 .03-.02.04-.05.04-.04 0-.08 0-.15.02-.17.03-.22.14-.23.36-.01.2-.01.38-.01 1.36v.67c0 .68-.07 1.43-.57 1.88-.45.4-.92.46-1.29.46-.21 0-.84-.02-1.29-.44-.31-.29-.54-.73-.54-1.65v-.91"/>
    <path fill="#1A1919" d="M81.14 29.458c0-.98 0-1.156-.012-1.356-.012-.213-.062-.314-.27-.358-.05-.012-.156-.02-.213-.02-.024 0-.05-.01-.05-.037 0-.038.03-.05.1-.05.283 0 .678.018.71.018.042 0 1.293 0 1.436-.006.12-.01.22-.02.27-.04.04-.01.06-.03.09-.03.02 0 .03.02.03.05 0 .04-.03.12-.05.29 0 .06-.02.33-.03.41 0 .03-.02.07-.04.07-.04 0-.05-.03-.05-.08s0-.15-.04-.23c-.04-.1-.1-.18-.44-.22-.1-.01-.79-.02-.86-.02-.02 0-.03.02-.03.06v1.73c0 .04.01.06.04.06.08 0 .85 0 1-.02.15-.02.24-.03.29-.09.05-.05.07-.08.1-.08.02 0 .03.01.03.05 0 .03-.03.14-.05.35-.01.12-.02.35-.02.4 0 .05 0 .12-.04.12-.03 0-.04-.03-.04-.06 0-.07 0-.13-.02-.21-.02-.09-.08-.2-.32-.22-.17-.02-.79-.03-.9-.03-.03 0-.04.02-.04.04v1.62c.02.43.12.51.73.51.17 0 .44 0 .6-.07.17-.07.25-.2.29-.45.02-.07.03-.1.06-.1.04 0 .04.05.04.09 0 .05-.05.47-.08.6-.04.17-.09.17-.34.17-.95 0-1.37-.04-1.55-.04-.03 0-.42.02-.61.02-.07 0-.1-.02-.1-.05 0-.02.01-.04.05-.04.06 0 .13-.01.19-.03.12-.03.16-.16.18-.35.03-.26.03-.76.03-1.36v-1.1"/>
    <path fill="#1A1919" d="M.593 36.986c0-.977 0-1.152-.012-1.354-.01-.215-.06-.313-.27-.356-.05-.013-.15-.02-.21-.02-.02 0-.05-.01-.05-.037 0-.04.03-.06.1-.06.29 0 .68.02.71.02.13 0 1.4 0 1.55-.01.12-.01.22-.01.28-.03.04-.01.07-.04.09-.04.03 0 .04.02.04.05 0 .04-.03.12-.05.29 0 .06-.02.34-.03.41-.01.03-.02.07-.05.07-.03 0-.04-.03-.04-.08s-.02-.15-.05-.24c-.04-.09-.18-.2-.42-.21l-.96-.02c-.04 0-.06.02-.06.07v1.74c0 .04.01.05.05.05l.8-.01c.11 0 .2 0 .29-.01.15-.01.23-.03.29-.12.03-.03.05-.06.07-.06.03 0 .03.02.03.05 0 .04-.03.14-.05.35-.01.12-.02.38-.02.42 0 .06 0 .12-.04.12-.03 0-.04-.03-.04-.06 0-.06-.01-.15-.04-.22-.03-.09-.13-.2-.32-.22-.15-.02-.84-.02-.95-.02-.03 0-.04.01-.04.06v.54c0 .6 0 1.1.03 1.36.02.18.06.32.25.34.09.01.23.02.28.02.04 0 .05.02.05.04 0 .03-.03.05-.1.05-.34 0-.74-.02-.77-.02-.03 0-.43.01-.61.01-.07 0-.1-.01-.1-.05 0-.02.01-.04.05-.04.06 0 .13-.02.19-.03.13-.03.16-.17.19-.35.03-.26.03-.76.03-1.36v-1.1"/>
    <path fill="#1A1919" d="M4.308 36.986c0-.977 0-1.152-.013-1.354-.01-.215-.062-.313-.27-.356-.05-.013-.156-.02-.213-.02-.024 0-.05-.01-.05-.037 0-.04.032-.06.1-.06.283 0 .68.02.71.02.043 0 1.293 0 1.437-.01.11-.01.22-.02.27-.03.03-.01.05-.04.08-.04.02 0 .02.02.02.05 0 .04-.03.12-.05.29-.01.06-.02.34-.03.41-.01.03-.02.07-.05.07-.04 0-.05-.03-.05-.08s-.01-.15-.04-.23c-.05-.1-.11-.18-.45-.22-.11-.02-.79-.02-.86-.02-.03 0-.04.02-.04.06v1.74c0 .04 0 .06.03.06.08 0 .85 0 1-.01.15-.02.24-.03.29-.09.04-.05.07-.08.09-.08.02 0 .03.01.03.05 0 .03-.03.14-.05.35-.01.12-.03.36-.03.4 0 .05 0 .12-.04.12-.03 0-.04-.03-.04-.06 0-.06 0-.13-.03-.21-.03-.09-.08-.2-.33-.22-.17-.02-.79-.03-.9-.03-.04 0-.05.01-.05.04v.55c0 .21-.01.94 0 1.07.02.43.11.51.73.51.16 0 .44 0 .6-.07.16-.07.24-.19.28-.45.01-.07.02-.09.05-.09.04 0 .04.05.04.1s-.05.47-.08.61c-.05.16-.1.16-.34.16-.95 0-1.37-.04-1.55-.04-.03 0-.43.01-.62.01-.07 0-.1-.01-.1-.05 0-.02.01-.04.05-.04.05 0 .13-.02.19-.03.12-.02.15-.16.18-.34.03-.26.03-.76.03-1.36v-1.1zm1.82-2.672c.03.056 0 .075-.025.075-.018 0-.08-.02-.188 0-.308.03-.747.17-.954.26-.04.02-.08.03-.09.03-.01 0-.03-.01-.03-.04 0-.02.01-.04.05-.05.23-.16.81-.51.86-.53.11-.07.15-.09.18-.09.02 0 .03.01.06.06.05.06.09.15.16.27z"/>
    <path fill="#1A1919" d="M8.136 38.092c0 .602 0 1.098-.03 1.363-.026.18-.058.32-.184.344-.056.01-.13.02-.187.02-.038 0-.05.02-.05.03 0 .04.03.05.1.05.188 0 .584-.02.615-.02.062 0 .853.07 1.393.07 1.067 0 1.63-.44 1.902-.73.35-.37.677-.98.677-1.77 0-.75-.295-1.27-.608-1.6-.748-.77-1.895-.72-2.516-.72-.377 0-.773.02-.848.02-.032 0-.427-.02-.71-.02-.068 0-.1.01-.1.05 0 .03.026.04.05.04.057 0 .164 0 .214.02.207.04.257.14.27.35.012.2.012.37.012 1.35v1.1zm.528-1.206c0-.484 0-1.12.006-1.335 0-.07.018-.1.075-.12.05-.02.283-.04.407-.04.748 0 1.464.09 2.053.71.257.27.602.79.602 1.59 0 .58-.175 1.18-.502 1.5-.37.37-.91.59-1.493.59-.74 0-.986-.13-1.067-.25-.05-.07-.063-.32-.07-.48-.005-.11-.01-.69-.01-1.36v-.78z"/>
    <path fill="#1A1919" d="M13.64 36.986c0-.977 0-1.152-.013-1.354-.012-.215-.063-.313-.27-.356-.05-.013-.156-.02-.213-.02-.025 0-.05-.01-.05-.037 0-.04.03-.06.1-.06.282 0 .678.02.71.02.043 0 1.292 0 1.437-.01.12-.01.22-.02.27-.03.04-.01.06-.04.09-.04.02 0 .03.02.03.05 0 .04-.03.12-.05.29 0 .06-.02.34-.03.41-.01.03-.02.07-.04.07-.04 0-.05-.03-.05-.08s0-.15-.04-.23c-.04-.1-.1-.18-.44-.22-.1-.02-.79-.02-.86-.02-.02 0-.03.02-.03.06v1.74c0 .04.01.06.04.06.08 0 .85 0 1-.01.15-.02.24-.03.3-.09.04-.05.07-.08.09-.08.02 0 .04.01.04.05 0 .03-.03.14-.05.35-.01.12-.02.36-.02.4 0 .05 0 .12-.04.12-.03 0-.04-.03-.04-.06 0-.06 0-.13-.02-.21-.02-.09-.08-.2-.33-.22-.17-.02-.79-.03-.9-.03-.03 0-.04.01-.04.04v.55c0 .21-.01.94 0 1.07.02.43.11.51.72.51.17 0 .44 0 .61-.07.16-.07.24-.19.28-.45.02-.07.03-.09.06-.09.04 0 .04.05.04.1s-.05.47-.08.61c-.04.16-.09.16-.34.16-.95 0-1.37-.04-1.55-.04-.03 0-.43.01-.62.01-.07 0-.1-.01-.1-.05 0-.02.01-.04.05-.04.06 0 .13-.02.19-.03.13-.02.16-.16.18-.34.03-.26.03-.76.03-1.36v-1.1zm1.82-2.672c.03.056 0 .075-.025.075-.02 0-.082-.02-.19 0-.306.03-.746.17-.953.26-.044.02-.08.03-.094.03-.012 0-.03-.01-.03-.04 0-.02.01-.04.043-.05.23-.16.81-.51.86-.53.11-.07.15-.09.18-.09.02 0 .04.01.07.06.05.06.09.15.16.27z"/>
    <path fill="#1A1919" d="M17.468 38.092c0 .602 0 1.098-.032 1.363-.025.18-.056.32-.182.344-.056.01-.132.02-.188.02-.037 0-.05.02-.05.03 0 .04.03.05.1.05.19 0 .584-.02.59-.02.03 0 .427.01.772.01.07 0 .1-.02.1-.05 0-.02-.012-.04-.05-.04-.056 0-.194-.02-.283-.03-.187-.03-.225-.17-.244-.35-.03-.27-.03-.76-.03-1.37v-.15c0-.03.02-.05.05-.05l.77.01c.04 0 .06.01.09.03.13.16.42.58.69.93.36.47.58.77.85.92.17.08.32.11.68.11h.45c.12 0 .15-.01.15-.05 0-.02-.02-.04-.05-.04-.04 0-.12 0-.24-.02-.16-.03-.43-.1-.77-.45-.36-.39-.79-.95-1.3-1.61.57-.52.76-.99.76-1.45 0-.44-.27-.74-.43-.86-.33-.24-.75-.28-1.15-.28-.19 0-.67.02-.74.02-.03 0-.42-.02-.71-.02-.07 0-.1.01-.1.05 0 .03.03.04.05.04.06 0 .17 0 .22.02.21.04.26.14.27.35.01.2.01.37.01 1.35V38zm.502-2.61c0-.038.02-.065.05-.076.062-.02.232-.038.42-.038.672 0 1.086.472 1.086 1.255 0 .477-.163.815-.383.966-.144.1-.32.12-.47.12-.277 0-.565-.05-.66-.1-.03-.02-.043-.05-.043-.08v-2.05z"/>
    <path fill="#1A1919" d="M21.68 39.22c-.115.315-.24.554-.53.592-.05.007-.137.013-.18.013-.032 0-.058.013-.058.037 0 .04.04.05.12.05.295 0 .64-.017.71-.017.07 0 .338.017.49.017.055 0 .093-.01.093-.05 0-.024-.02-.037-.063-.037H22.2c-.107 0-.24-.057-.24-.183 0-.114.032-.26.088-.42l.377-1.112c.013-.03.03-.05.063-.05h1.35c.03 0 .043.012.056.038l.584 1.544c.037.1 0 .157-.038.17-.025.007-.044.02-.044.044 0 .04.07.04.188.045.433.02.89.02.985.02.06 0 .12-.01.12-.05 0-.03-.03-.03-.07-.03-.07 0-.16 0-.25-.03-.14-.04-.32-.14-.54-.7-.39-.95-1.37-3.54-1.47-3.78-.08-.19-.1-.22-.14-.22-.04 0-.06.04-.14.25l-1.42 3.89zm.876-1.384c-.017 0-.03-.012-.017-.045l.55-1.69c.03-.09.06-.09.09 0l.59 1.7c0 .03 0 .05-.03.05h-1.2z"/>
    <path fill="#1A1919" d="M27.12 38.105c0 .92.025 1.326.137 1.436.1.11.264.15.754.15.34 0 .61 0 .76-.19.08-.1.15-.25.17-.37.01-.05.02-.08.06-.08.03 0 .04.03.04.1s-.04.45-.09.63c-.04.15-.06.17-.39.17-.9 0-1.32-.03-1.68-.03-.05 0-.42.02-.61.02-.06 0-.1-.01-.1-.05 0-.01.02-.03.05-.03.06 0 .14-.01.19-.03.13-.02.16-.16.18-.34.04-.26.04-.76.04-1.36V37c0-.977 0-1.152-.01-1.354-.01-.216-.06-.314-.27-.357-.05-.02-.15-.02-.21-.02-.02 0-.05-.01-.05-.04 0-.04.03-.05.1-.05.28 0 .68.02.71.02.03 0 .49-.02.68-.02.07 0 .1.01.1.05 0 .02-.02.04-.05.04-.04 0-.13 0-.2.01-.18.03-.23.13-.25.35-.01.2-.01.37-.01 1.35v1.12"/>
    <path fill="#1A1919" d="M30.307 36.986c0-.977 0-1.152-.013-1.354-.012-.215-.062-.313-.27-.356-.05-.013-.156-.02-.213-.02-.02 0-.05-.01-.05-.037 0-.04.04-.06.1-.06.29 0 .68.02.71.02.05 0 1.3 0 1.44-.01.12-.01.22-.02.27-.03.03-.01.06-.04.09-.04.02 0 .03.02.03.05 0 .04-.03.12-.05.29 0 .06-.02.34-.03.41 0 .03-.02.07-.04.07-.03 0-.05-.03-.05-.08s0-.15-.04-.23c-.04-.1-.1-.18-.44-.22-.1-.02-.79-.02-.86-.02-.02 0-.04.02-.04.06v1.74c0 .04.01.06.04.06.08 0 .86 0 1-.01.15-.02.24-.03.3-.09.05-.05.07-.08.1-.08.02 0 .03.01.03.05 0 .03-.03.14-.05.35-.01.12-.02.36-.02.4 0 .05 0 .12-.04.12-.03 0-.04-.03-.04-.06 0-.06 0-.13-.02-.21-.02-.09-.08-.2-.32-.22-.17-.02-.79-.03-.9-.03-.03 0-.04.01-.04.04v.55c0 .21-.01.94 0 1.07.02.43.11.51.73.51.17 0 .44 0 .6-.07.17-.07.24-.19.29-.45.02-.07.03-.09.06-.09.04 0 .04.05.04.1s-.05.47-.08.61c-.04.16-.09.16-.34.16-.95 0-1.37-.04-1.55-.04-.03 0-.43.01-.61.01-.07 0-.1-.01-.1-.05 0-.02.01-.04.05-.04.05 0 .13-.02.19-.03.13-.02.16-.16.18-.34.03-.26.03-.76.03-1.36v-1.1"/>
    <path fill="#1A1919" d="M36.174 38.092c0 .602 0 1.098-.03 1.363-.026.18-.058.32-.183.344-.05.01-.13.02-.18.02-.04 0-.05.02-.05.03 0 .04.03.05.1.05.19 0 .59-.02.62-.02.07 0 .86.07 1.4.07 1.07 0 1.63-.44 1.9-.73.35-.37.68-.98.68-1.77 0-.75-.29-1.27-.61-1.6-.74-.77-1.89-.72-2.51-.72-.37 0-.77.02-.84.02-.03 0-.43-.02-.71-.02-.07 0-.1.01-.1.05 0 .03.03.04.05.04.06 0 .16 0 .21.02.21.04.26.14.27.35.01.2.01.37.01 1.35v1.1zm.527-1.206c0-.484 0-1.12.01-1.335 0-.07.02-.1.08-.12.05-.02.28-.04.41-.04.75 0 1.47.09 2.06.71.26.27.6.79.6 1.59 0 .58-.17 1.18-.5 1.5-.37.37-.91.59-1.49.59-.74 0-.98-.13-1.06-.25-.05-.07-.06-.32-.07-.48 0-.11-.01-.69-.01-1.36v-.78z"/>
    <path fill="#1A1919" d="M41.93 36.986c0-.977 0-1.152-.014-1.354-.012-.215-.062-.313-.27-.356-.05-.013-.157-.02-.212-.02-.026 0-.05-.01-.05-.037 0-.04.03-.06.1-.06.282 0 .677.02.71.02.043 0 1.29 0 1.435-.01.12-.01.22-.02.27-.03.03-.01.05-.04.08-.04.02 0 .02.02.02.05 0 .04-.04.12-.05.29-.01.06-.02.34-.03.41-.01.03-.02.07-.05.07-.04 0-.06-.03-.06-.08s-.01-.15-.04-.23c-.05-.1-.11-.18-.45-.22-.11-.02-.79-.02-.86-.02-.03 0-.04.02-.04.06v1.74c0 .04 0 .06.03.06.08 0 .86 0 1-.01.15-.02.24-.03.3-.09.04-.05.07-.08.09-.08.02 0 .03.01.03.05 0 .03-.03.14-.05.35-.01.12-.03.36-.03.4 0 .05 0 .12-.04.12-.03 0-.05-.03-.05-.06 0-.06 0-.13-.03-.21-.03-.09-.08-.2-.33-.22-.17-.02-.79-.03-.9-.03-.03 0-.04.01-.04.04v.55c0 .21-.01.94 0 1.07.02.43.11.51.73.51.16 0 .44 0 .6-.07.16-.07.24-.19.28-.45.02-.07.03-.09.06-.09.04 0 .04.05.04.1s-.05.47-.09.61c-.04.16-.09.16-.34.16-.95 0-1.37-.04-1.55-.04-.03 0-.43.01-.62.01-.07 0-.1-.01-.1-.05 0-.02.01-.04.05-.04.06 0 .13-.02.19-.03.122-.02.152-.16.18-.34.03-.26.03-.76.03-1.36v-1.1"/>
    <path fill="#1A1919" d="M48.324 38.105c0 .92.025 1.326.138 1.436.1.11.263.15.753.15.332 0 .607 0 .76-.19.08-.1.144-.25.163-.37.006-.05.018-.08.056-.08.03 0 .037.03.037.1s-.04.45-.09.63c-.04.15-.06.17-.39.17-.9 0-1.32-.03-1.68-.03-.06 0-.43.02-.61.02-.07 0-.1-.01-.1-.05 0-.01.02-.03.05-.03.06 0 .14-.01.19-.03.13-.02.16-.16.18-.34.04-.26.04-.76.04-1.36V37c0-.977 0-1.152-.01-1.354-.01-.216-.06-.314-.27-.357-.05-.02-.15-.02-.21-.02-.02 0-.05-.01-.05-.04 0-.04.04-.05.1-.05.29 0 .68.02.71.02.04 0 .49-.02.68-.02.07 0 .1.01.1.05 0 .02-.02.04-.05.04-.04 0-.13 0-.2.01-.18.03-.23.13-.24.35-.01.2-.01.37-.01 1.35v1.12"/>
    <path fill="#1A1919" d="M51.118 39.22c-.115.315-.24.554-.527.592-.05.007-.14.013-.18.013-.03 0-.05.013-.05.037 0 .04.04.05.12.05.3 0 .64-.017.71-.017.07 0 .34.017.49.017.06 0 .1-.01.1-.05 0-.024-.02-.037-.06-.037h-.06c-.11 0-.24-.057-.24-.183 0-.114.03-.26.09-.42l.38-1.112c.01-.03.03-.05.06-.05h1.35c.03 0 .05.012.06.038l.59 1.544c.04.1 0 .157-.04.17-.02.007-.04.02-.04.044 0 .04.07.04.19.045.43.02.89.02.99.02.07 0 .13-.01.13-.05 0-.03-.02-.03-.06-.03-.06 0-.16 0-.25-.03-.13-.04-.31-.14-.54-.7-.38-.95-1.37-3.54-1.46-3.78-.07-.19-.1-.22-.14-.22-.03 0-.06.04-.14.25l-1.42 3.9zm.876-1.384c-.02 0-.03-.012-.02-.045l.554-1.69c.03-.09.063-.09.095 0l.596 1.7c0 .03 0 .05-.03.05h-1.2z"/>
    <path fill="#1A1919" d="M55.666 36.986c0-.977 0-1.152-.012-1.354-.014-.215-.063-.313-.27-.356-.05-.013-.156-.02-.214-.02-.026 0-.05-.01-.05-.037 0-.04.03-.06.1-.06.282 0 .666.02.722.02.056 0 .434-.02.62-.02.07 0 .1.01.1.05 0 .02-.023.04-.048.04-.045 0-.083 0-.158.02-.168.02-.22.13-.232.35-.012.2-.012.37-.012 1.35v.88c0 .9.202 1.29.47 1.55.31.28.59.34.948.34.382 0 .76-.18.985-.45.29-.36.364-.89.364-1.54v-.79c0-.98 0-1.15-.02-1.35-.01-.22-.07-.32-.27-.36-.05-.01-.16-.02-.21-.02-.03 0-.05-.01-.05-.04 0-.04.03-.05.1-.05.28 0 .62.02.66.02.04 0 .34-.02.52-.02.07 0 .1.01.1.05 0 .02-.03.04-.05.04-.05 0-.08 0-.16.02-.17.03-.22.13-.23.35-.02.2-.02.37-.02 1.35v.67c0 .68-.07 1.43-.58 1.87-.45.4-.92.46-1.3.46-.21 0-.85-.03-1.29-.45-.31-.3-.55-.73-.55-1.65v-.92"/>
    <path fill="#1A1919" d="M60.836 39.83c-.088-.042-.094-.068-.094-.238 0-.314.025-.566.033-.664.006-.068.018-.1.05-.1.037 0 .043.018.043.068 0 .056 0 .143.02.232.094.464.508.64.928.64.603 0 .896-.432.896-.834 0-.435-.18-.685-.72-1.13l-.284-.233c-.663-.54-.815-.93-.815-1.36 0-.67.503-1.13 1.3-1.13.244 0 .426.03.583.07.12.03.17.03.22.03.05 0 .064.02.064.05 0 .03-.026.24-.026.67 0 .1-.012.15-.045.15-.04 0-.05-.03-.05-.08-.01-.07-.05-.24-.09-.31-.04-.07-.21-.33-.78-.33-.44 0-.78.27-.78.73 0 .36.17.57.77 1.06l.17.14c.74.59.92.98.92 1.48 0 .26-.1.74-.54 1.04-.27.19-.61.26-.95.26-.3 0-.59-.04-.85-.17"/>
    <path fill="#1A1919" d="M64.294 39.22c-.112.315-.238.554-.528.592-.05.007-.137.013-.18.013-.03 0-.057.013-.057.037 0 .04.03.05.11.05.29 0 .64-.017.71-.017.07 0 .34.017.49.017.05 0 .09-.01.09-.05 0-.024-.02-.037-.06-.037h-.07c-.11 0-.24-.057-.24-.183 0-.114.03-.26.09-.42l.37-1.112c.01-.03.03-.05.06-.05h1.35c.03 0 .04.012.05.038l.58 1.544c.03.1 0 .157-.04.17-.03.007-.05.02-.05.044 0 .04.07.04.19.045.43.02.89.02.98.02.07 0 .12-.01.12-.05 0-.03-.03-.03-.07-.03-.07 0-.16 0-.25-.03-.14-.04-.32-.14-.54-.7-.39-.95-1.37-3.54-1.47-3.78-.07-.19-.1-.22-.14-.22-.04 0-.06.04-.14.25l-1.43 3.9zm.88-1.384c-.02 0-.032-.012-.02-.045l.554-1.69c.03-.09.06-.09.09 0l.598 1.7c.006.03.006.05-.026.05h-1.196z"/>
    <path fill="#1A1919" d="M69.378 39.058c.013.515.074.678.244.73.12.03.257.037.314.037.03 0 .05.013.05.037 0 .04-.038.05-.112.05-.36 0-.608-.017-.665-.017-.06 0-.33.017-.61.017-.07 0-.1-.005-.1-.05 0-.024.02-.037.05-.037.05 0 .16-.006.25-.037.15-.045.19-.23.19-.798l.01-3.598c0-.243.02-.312.07-.312s.16.14.22.202c.09.104 1.03 1.115 1.99 2.152.62.664 1.3 1.432 1.51 1.636l-.07-3.188c-.01-.407-.05-.545-.25-.594-.11-.025-.26-.03-.31-.03-.04 0-.05-.02-.05-.045 0-.038.05-.045.13-.045.28 0 .59.02.66.02.07 0 .27-.02.53-.02.07 0 .11.007.11.045 0 .025-.02.044-.07.044-.03 0-.08 0-.15.02-.21.042-.24.18-.24.557l-.01 3.677c0 .42-.02.45-.06.45-.05 0-.13-.07-.46-.4-.07-.06-.97-.98-1.64-1.7-.73-.78-1.44-1.57-1.63-1.8l.08 3.01"/>
    <path fill="#1A1919" d="M75.32 39.058c.012.515.076.678.246.73.12.03.256.037.313.037.03 0 .05.013.05.037 0 .04-.04.05-.12.05-.36 0-.61-.017-.67-.017-.06 0-.32.017-.6.017-.07 0-.1-.005-.1-.05 0-.024.01-.037.05-.037.05 0 .16-.006.25-.037.15-.045.19-.23.19-.798v-3.598c0-.243.02-.312.07-.312s.15.14.22.202c.09.104 1.03 1.115 1.99 2.152.62.664 1.3 1.432 1.5 1.636l-.07-3.188c-.01-.407-.05-.545-.25-.594-.12-.025-.26-.03-.31-.03-.05 0-.05-.02-.05-.045 0-.038.05-.045.12-.045.28 0 .58.02.65.02.07 0 .27-.02.53-.02.07 0 .11.007.11.045 0 .025-.03.044-.07.044-.03 0-.08 0-.15.02-.21.042-.23.18-.23.557v3.676c0 .42-.02.45-.06.45-.05 0-.13-.07-.46-.4-.07-.06-.98-.98-1.64-1.7-.73-.78-1.44-1.57-1.64-1.8l.08 3.01"/>
    <path fill="#1A1919" d="M81.094 36.986c0-.977 0-1.152-.012-1.354-.014-.215-.064-.313-.27-.356-.05-.013-.156-.02-.214-.02-.026 0-.05-.01-.05-.037 0-.04.03-.06.1-.06.28 0 .68.02.71.02.043 0 1.293 0 1.437-.01.118-.01.217-.02.27-.03.03-.01.056-.04.088-.04.018 0 .025.02.025.05 0 .04-.032.12-.052.29-.005.06-.018.34-.03.41-.007.03-.02.07-.045.07-.03 0-.05-.03-.05-.08s0-.15-.03-.23c-.04-.1-.1-.18-.45-.22-.1-.02-.79-.02-.85-.02-.02 0-.04.02-.04.06v1.74c0 .04.01.06.04.06.08 0 .85 0 1-.01.15-.02.24-.03.3-.09.04-.05.07-.08.1-.08.02 0 .03.01.03.05 0 .03-.03.14-.05.35-.01.12-.02.36-.02.4 0 .05 0 .12-.04.12-.03 0-.04-.03-.04-.06 0-.06 0-.13-.03-.21-.02-.09-.08-.2-.32-.22-.17-.02-.79-.03-.89-.03-.03 0-.04.01-.04.04v1.62c.02.43.12.51.73.51.16 0 .44 0 .6-.07.16-.07.24-.19.28-.45.01-.07.03-.09.06-.09.04 0 .04.05.04.1s-.05.47-.09.61c-.04.16-.09.16-.34.16-.95 0-1.36-.04-1.55-.04-.03 0-.43.01-.61.01-.07 0-.1-.01-.1-.05 0-.02.01-.04.05-.04.06 0 .13-.02.19-.03.12-.02.16-.16.18-.34.03-.26.03-.76.03-1.36v-1.1"/>
  </g>
</svg>
